# xmcd CD database file
#
# Track frame offsets:
#	150
#	24660
#	45807
#	70277
#
# Disc length: 1217 seconds
#
# Revision: 2
# Processed by: cddbd v1.5.2PL0 Copyright (c) Steve Scherf et al.
# Submitted via: CDex 1.70beta2
#
DISCID=2904bf04
DTITLE=COMA - だって、大好き！
DYEAR=1999
DGENRE=Soundtrack
TTITLE0=だって、大好き！
TTITLE1=ミカンのあぶりだし
TTITLE2=だって、大好き!(Karaoke)
TTITLE3=ミカンのあぶりだし(Karaoke)
EXTD=YEAR: 1999
EXTT0=
EXTT1=
EXTT2=
EXTT3=
PLAYORDER=
